<?xml version="1.0" encoding="utf-8"?>
<!-- Generator: Adobe Illustrator 23.0.2, SVG Export Plug-In . SVG Version: 6.00 Build 0)  -->
<svg version="1.1" id="Calque_1" xmlns="http://www.w3.org/2000/svg" xmlns:xlink="http://www.w3.org/1999/xlink" x="0px" y="0px"
	 viewBox="0 0 264 65" style="enable-background:new 0 0 264 65;" xml:space="preserve">
<style type="text/css">
	.st0{fill:#00428f;}
</style>
<g>
	<g>
		<path class="st0" d="M2.63,4.36h8.12v31.76H26.6v7.45H2.63V4.36z"/>
		<path class="st0" d="M46.15,4.13h7.73l14.06,39.43h-8.4l-2.91-8.51h-13.5l-2.86,8.51h-8.18L46.15,4.13z M54.16,27.88L49.9,15.11
			l-4.31,12.77H54.16z"/>
		<path class="st0" d="M75.84,4.36h8.51l8.74,15.91l8.63-15.91h8.57v39.21h-7.95V18.53l-9.24,16.19h-0.17l-9.19-16.08v24.93h-7.9
			V4.36z"/>
		<path class="st0" d="M118.3,38.3l4.82-5.99c2.63,2.3,5.83,4.42,9.75,4.42c3.14,0,5.04-1.57,5.04-3.86v-0.06
			c0-1.96-1.12-3.19-6.72-5.32c-6.95-2.69-11.26-5.32-11.26-12.04v-0.11c0-6.83,5.27-11.48,12.83-11.48c4.59,0,9.07,1.57,12.66,4.82
			l-4.54,6.16c-2.46-2.02-5.32-3.64-8.35-3.64c-2.8,0-4.54,1.4-4.54,3.42v0.06c0,2.24,1.34,3.3,7.45,5.83
			c6.83,2.69,10.53,5.6,10.53,11.71v0.11c0,7.28-5.54,11.76-13.16,11.76C127.82,44.07,122.61,42.34,118.3,38.3z"/>
		<path class="st0" d="M166.08,4.13h7.73l14.06,39.43h-8.4l-2.91-8.51h-13.5l-2.86,8.51h-8.18L166.08,4.13z M174.09,27.88
			l-4.26-12.77l-4.31,12.77H174.09z"/>
		<path class="st0" d="M195.77,4.36h12.66c11.37,0,18.71,7.84,18.71,19.33v0.5c0,11.48-7.34,19.38-18.71,19.38h-12.66V4.36z
			 M203.89,11.7v24.53h4.48c6.16,0,10.36-4.31,10.36-12.1v-0.28c0-7.79-4.2-12.16-10.36-12.16H203.89z"/>
		<path class="st0" d="M236.55,4.36h25.26v7.34h-17.2v8.46h15.12v7.34h-15.12v8.74h17.42v7.34h-25.49V4.36z"/>
	</g>
</g>
<g>
	<g>
		<path class="st0" d="M176.52,57.34v-8.53h2.28v8.51c0,2.23,1.08,3.39,2.86,3.39c1.73,0,2.84-1.12,2.84-3.31v-8.59h2.27v8.45
			c0,3.7-2.03,5.56-5.14,5.56C178.55,62.82,176.52,60.95,176.52,57.34z"/>
		<path class="st0" d="M189.61,48.81h2.38l3.55,6.34l3.53-6.34h2.4V62.6h-2.27v-9.75l-3.66,6.38h-0.06l-3.64-6.34v9.71h-2.23V48.81z
			"/>
		<path class="st0" d="M204.44,48.81h4.98c1.58,0,2.86,0.47,3.68,1.3c0.73,0.73,1.14,1.77,1.14,3.03v0.08
			c0,2.13-1.18,3.45-2.86,4.04l3.25,5.34h-2.64l-2.94-4.89c-0.04,0.02-0.1,0.02-0.14,0.02h-2.21v4.87h-2.29V48.81z M209.19,55.69
			c1.77,0,2.76-0.95,2.76-2.38v-0.04c0-1.56-1-2.36-2.72-2.36h-2.5v4.79H209.19z"/>
		<path class="st0" d="M227.4,50.9h-6.01v-2.09h8.49v1.71l-5.3,12.08h-2.48L227.4,50.9z"/>
		<path class="st0" d="M231.58,60.79l4.22-4.51c1.56-1.62,2.13-2.46,2.13-3.58c0-1.24-0.89-1.97-2.01-1.97
			c-1.08,0-1.85,0.59-2.76,1.77l-1.52-1.4c1.14-1.58,2.48-2.48,4.47-2.48c2.4,0,4.14,1.52,4.14,3.88v0.04c0,1.87-0.87,2.99-2.88,5
			l-2.76,2.99h5.69v2.07h-8.73V60.79z"/>
		<path class="st0" d="M248.29,59.61h-6.11l-0.32-1.66l6.56-9.22h2.03v8.96h1.71v1.91h-1.71v2.99h-2.17V59.61z M248.29,57.7v-5.54
			l-3.9,5.54H248.29z"/>
		<path class="st0" d="M253.55,60.93l1.42-1.62c0.75,0.83,1.65,1.44,2.97,1.44c1.28,0,2.27-0.87,2.27-2.19V58.5
			c0-1.42-1.22-2.21-3.13-2.21h-0.69l-0.3-1.44l3.35-4h-5.22v-2.05h8.08v1.79l-3.49,4c1.91,0.3,3.66,1.42,3.66,3.82v0.06
			c0,2.58-1.87,4.33-4.51,4.33C256.03,62.82,254.57,62.05,253.55,60.93z"/>
	</g>
</g>
<g>
</g>
<g>
</g>
<g>
</g>
<g>
</g>
<g>
</g>
<g>
</g>
<g>
</g>
<g>
</g>
<g>
</g>
<g>
</g>
<g>
</g>
<g>
</g>
<g>
</g>
<g>
</g>
<g>
</g>
</svg>
